{"title":"Clueless.1995.720p.BluRay.H264.AAC-RARBG","uid":12232929,"size":1320671892,"categoryP":"video","categoryS":"hd___movies","magnet":"?xt=urn:btih:b6763ed6eb90e2cd5ca860b7d8ffdc9c1c37396d&amp;dn=Clueless.1995.720p.BluRay.H264.AAC-RARBG&amp;tr=udp%3A%2F%2Ftracker.openbittorrent.com%3A80&amp;tr=udp%3A%2F%2Fopen.demonii.com%3A1337&amp;tr=udp%3A%2F%2Ftracker.coppersurfer.tk%3A6969&amp;tr=udp%3A%2F%2Fexodus.desync.com%3A6969","seeders":0,"leechers":1,"uploader":"GoodFilms","files":7,"time":1439605175,"description":" &lt;a href=&quot;http://www.imdb.com/title/tt0112697/&quot; rel=&quot;nofollow&quot; target=&quot;_NEW&quot;&gt;http://www.imdb.com/title/tt0112697/&lt;/a&gt;\n\nA rich high school student tries to boost a new pupil's popularity, but reckons without affairs of the heart getting in the way.\n\nVideo\nID                                       : 1\nFormat                                   : AVC\nFormat/Info                              : Advanced Video Codec\nFormat profile                           : &lt;a class=&quot;__cf_email__&quot; href=&quot;/cdn-cgi/l/email-protection&quot; data-cfemail=&quot;2b63424c436b671f051a&quot;&gt;[email&amp;#160;protected]&lt;/a&gt;&lt;script data-cfhash='f9e31' type=&quot;text/javascript&quot;&gt;\n/* &lt;![CDATA[ */!function(){try{var t=&quot;currentScript&quot;in document?document.currentScript:function(){for(var t=document.getElementsByTagName(&quot;script&quot;),e=t.length;e--;)if(t[e].getAttribute(&quot;data-cfhash&quot;))return t[e]}();if(t&amp;&amp;t.previousSibling){var e,r,n,i,c=t.previousSibling,a=c.getAttribute(&quot;data-cfemail&quot;);if(a){for(e=&quot;&quot;,r=parseInt(a.substr(0,2),16),n=2;a.length-n;n+=2)i=parseInt(a.substr(n,2),16)^r,e+=String.fromCharCode(i);e=document.createTextNode(e),c.parentNode.replaceChild(e,c)}t.parentNode.removeChild(t);}}catch(u){}}()/* ]]&gt; */&lt;/script&gt;\nFormat settings, CABAC                   : Yes\nFormat settings, ReFrames                : 4 frames\nCodec ID                                 : avc1\nCodec ID/Info                            : Advanced Video Coding\nDuration                                 : 1h 37mn\nBit rate                                 : 1 500 Kbps\nWidth                                    : 1 280 pixels\nHeight                                   : 720 pixels\nDisplay aspect ratio                     : 16:9\nFrame rate mode                          : Constant\nFrame rate                               : 23.976 fps\nColor space                              : YUV\nChroma subsampling                       : 4:2:0\nBit depth                                : 8 bits\nScan type                                : Progressive\nBits/(Pixel*Frame)                       : 0.068\nStream size                              : 1.02 GiB (87%)\nWriting library                          : x264 core 144 r2525M 40bb568\n\nAudio\nID                                       : 2\nFormat                                   : AAC\nFormat/Info                              : Advanced Audio Codec\nFormat profile                           : LC\nCodec ID                                 : 40\nDuration                                 : 1h 37mn\nBit rate mode                            : Constant\nBit rate                                 : 224 Kbps\nChannel(s)                               : 2 channels\nChannel(s)_Original                      : 6 channels\nChannel positions                        : Front: L C R, Side: L R, LFE\nSampling rate                            : 48.0 KHz\nCompression mode                         : Lossy\nStream size                              : 156 MiB (13%)\nLanguage                                 : English","torrent":{"xt":"urn:btih:b6763ed6eb90e2cd5ca860b7d8ffdc9c1c37396d","amp;dn":"Clueless.1995.720p.BluRay.H264.AAC-RARBG","amp;tr":["udp%3A%2F%2Ftracker.openbittorrent.com%3A80","udp%3A%2F%2Fopen.demonii.com%3A1337","udp%3A%2F%2Ftracker.coppersurfer.tk%3A6969","udp%3A%2F%2Fexodus.desync.com%3A6969"],"infoHash":"b6763ed6eb90e2cd5ca860b7d8ffdc9c1c37396d","infoHashBuffer":{"type":"Buffer","data":[182,118,62,214,235,144,226,205,92,168,96,183,216,255,220,156,28,55,57,109]},"announce":[],"urlList":[]}}